<?xml version="1.0" standalone="no"?><!DOCTYPE svg PUBLIC "-//W3C//DTD SVG 1.1//EN" "http://www.w3.org/Graphics/SVG/1.1/DTD/svg11.dtd"><svg t="1661336618445" class="icon" viewBox="0 0 1024 1024" version="1.1" xmlns="http://www.w3.org/2000/svg" p-id="2067" xmlns:xlink="http://www.w3.org/1999/xlink" width="48" height="48"><defs><style type="text/css">@font-face { font-family: feedback-iconfont; src: url("//at.alicdn.com/t/font_1031158_u69w8yhxdu.woff2?t=1630033759944") format("woff2"), url("//at.alicdn.com/t/font_1031158_u69w8yhxdu.woff?t=1630033759944") format("woff"), url("//at.alicdn.com/t/font_1031158_u69w8yhxdu.ttf?t=1630033759944") format("truetype"); }
</style></defs><path d="M512 509.5424m-432.3328 0a432.3328 432.3328 0 1 0 864.6656 0 432.3328 432.3328 0 1 0-864.6656 0Z" fill="#ED5DF9" p-id="2068"></path><path d="M287.0272 415.4368c-85.0432 0-160.4096 41.3696-207.104 105.0624 4.5568 182.7328 122.368 337.3056 285.952 396.032 103.2192-33.28 177.92-130.048 177.92-244.3776 0-141.7728-114.944-256.7168-256.768-256.7168z" fill="#F27DFF" p-id="2069"></path><path d="M355.2256 734.3616h321.7408c29.5424 0 54.4256-22.1184 57.856-51.456l34.6112-295.936L514.6624 527.36 263.9872 393.1648l33.3312 289.6384c3.4304 29.3888 28.3136 51.5584 57.9072 51.5584z" fill="#F8CAFF" p-id="2070"></path><path d="M270.7456 386.9696m-45.4144 0a45.4144 45.4144 0 1 0 90.8288 0 45.4144 45.4144 0 1 0-90.8288 0Z" fill="#FFFFFF" p-id="2071"></path><path d="M759.6032 386.9696m-45.4144 0a45.4144 45.4144 0 1 0 90.8288 0 45.4144 45.4144 0 1 0-90.8288 0Z" fill="#FFFFFF" p-id="2072"></path><path d="M516.7104 316.5696m-48.384 0a48.384 48.384 0 1 0 96.768 0 48.384 48.384 0 1 0-96.768 0Z" fill="#FFFFFF" p-id="2073"></path><path d="M733.7472 688.8448l-217.0368-372.2752-218.7264 370.0736c5.0176 27.4432 28.9792 47.7184 57.2416 47.7184h321.7408c27.4944 0 50.8928-19.1488 56.7808-45.5168z" fill="#FFFFFF" p-id="2074"></path></svg>